<?xml version="1.0" encoding="utf-8"?>
<!-- Generator: Adobe Illustrator 16.2.1, SVG Export Plug-In . SVG Version: 6.00 Build 0)  -->
<!DOCTYPE svg PUBLIC "-//W3C//DTD SVG 1.1//EN" "http://www.w3.org/Graphics/SVG/1.1/DTD/svg11.dtd">
<svg version="1.1" id="Layer_1" xmlns="http://www.w3.org/2000/svg" xmlns:xlink="http://www.w3.org/1999/xlink" x="0px" y="0px"
	 width="75px" height="75px" viewBox="0 0 75 75" enable-background="new 0 0 75 75" xml:space="preserve">
<circle fill="#404D59" cx="37.5" cy="37.5" r="37.5"/>
<path opacity="0.2" fill="#FFFFFF" d="M44.214,50.567c0-3.166,2.444-2.132,3.518-7.926c0.446-2.404,2.604-0.038,3.02-5.526
	c0-2.187-1.179-2.729-1.179-2.729s0.599-3.236,0.833-5.727C50.697,25.557,48.612,17.54,37.5,17.54
	c-11.113,0-13.197,8.017-12.905,11.119c0.234,2.491,0.833,5.727,0.833,5.727s-1.179,0.543-1.179,2.729
	c0.412,5.488,2.572,3.122,3.017,5.526c1.075,5.794,3.518,4.76,3.518,7.926c0,5.269-2.558,7.729-10.564,10.647
	c-3.345,1.219-6.191,2.446-8.387,3.612C18.543,71.132,27.567,75,37.5,75s18.957-3.868,25.666-10.172
	c-2.195-1.167-5.043-2.395-8.388-3.613C46.772,58.297,44.214,55.836,44.214,50.567z"/>
<g>
</g>
<g>
</g>
<g>
</g>
<g>
</g>
<g>
</g>
<g>
</g>
<g>
</g>
<g>
</g>
<g>
</g>
<g>
</g>
<g>
</g>
<g>
</g>
<g>
</g>
<g>
</g>
<g>
</g>
</svg>
